<?xml version="1.0" encoding="iso-8859-1"?>
<!-- Generator: Adobe Illustrator 21.0.0, SVG Export Plug-In . SVG Version: 6.00 Build 0)  -->
<svg xmlns="http://www.w3.org/2000/svg" xmlns:xlink="http://www.w3.org/1999/xlink" version="1.1" id="Capa_1" x="0px" y="0px" viewBox="0 0 512 512" style="enable-background:new 0 0 512 512;" xml:space="preserve" width="512" height="512">
<g>
	<g>
		<circle style="fill:#FF475A;" cx="256" cy="256" r="256"/>
	</g>
	<path style="fill:#D1093A;" d="M331.987,500.532c94.264-29.26,165.2-111.523,177.958-211.944L418,196.643l-13.27,22.087L287,101   L143.691,312.237L331.987,500.532z"/>
	<g>
		<path style="fill:#FFE85F;" d="M376.842,407.88l-23.513,17.845c-16.294,12.366-38.83,12.366-55.124,0l-23.513-17.845    c-25.929-19.679-41.158-50.355-41.158-82.906V196.643H418v128.331C418,357.525,402.771,388.201,376.842,407.88z"/>
	</g>
	<g>
		<path style="fill:#F7DC54;" d="M325.238,196.643V434.99c9.883,0.114,19.796-2.969,28.091-9.264l23.513-17.845    C402.771,388.201,418,357.525,418,324.974V196.643H325.238z"/>
	</g>
	<g>
		<g>
			<path style="fill:#FF9500;" d="M394.58,266.698c0,12.265-9.943,22.208-22.208,22.208c-12.265,0-22.208-9.943-22.208-22.208     s9.943,3.363,22.208,3.363C384.638,270.061,394.58,254.433,394.58,266.698z"/>
		</g>
		<g>
			<path style="fill:#FFA300;" d="M301.369,266.698c0,12.265-9.943,22.208-22.208,22.208s-22.208-9.943-22.208-22.208     s9.943,3.363,22.208,3.363S301.369,254.433,301.369,266.698z"/>
		</g>
	</g>
	<g>
		<path style="fill:#FFFFFF;" d="M245.842,312.237l-23.513,17.845c-16.294,12.366-38.83,12.366-55.124,0l-23.513-17.845    c-25.929-19.679-41.158-50.355-41.158-82.906V101H287v128.331C287,261.882,271.771,292.558,245.842,312.237z"/>
	</g>
	<g>
		<path style="fill:#E9EDF5;" d="M194.881,101v238.354c9.669-0.024,19.333-3.114,27.448-9.272l23.513-17.845    C271.771,292.558,287,261.882,287,229.331V101H194.881z"/>
	</g>
	<g>
		<path style="fill:#D7D7D7;" d="M241.106,243.732c0,25.592-20.747,46.339-46.339,46.339s-46.339-20.747-46.339-46.339    s20.747,7.017,46.339,7.017S241.106,218.139,241.106,243.732z"/>
	</g>
	<g>
		<path style="fill:#CDCDCD;" d="M241.106,243.731c0-25.554-20.685,6.918-46.225,7.015v39.321    C220.421,290.006,241.106,269.286,241.106,243.731z"/>
	</g>
	<g>
		<g>
			<path style="fill:#D7D7D7;" d="M125.953,191.946c0-12.265,9.943-22.208,22.208-22.208s22.208,9.943,22.208,22.208     s-9.943-3.363-22.208-3.363C135.896,188.583,125.953,204.211,125.953,191.946z"/>
		</g>
		<g>
			<path style="fill:#CDCDCD;" d="M219.164,191.946c0-12.265,9.943-22.208,22.208-22.208c12.265,0,22.208,9.943,22.208,22.208     s-9.943-3.363-22.208-3.363C229.107,188.583,219.164,204.211,219.164,191.946z"/>
		</g>
	</g>
	<g>
		<path style="fill:#FFA300;" d="M279.427,372.531c0-25.592,20.747-46.339,46.339-46.339s46.339,20.747,46.339,46.339    s-20.747-7.017-46.339-7.017S279.427,398.123,279.427,372.531z"/>
	</g>
	<g>
		<path style="fill:#FF9500;" d="M325.767,326.191c-0.177,0-0.352,0.011-0.529,0.013v39.319c0.176-0.003,0.352-0.01,0.529-0.01    c25.592,0,46.339,32.61,46.339,7.017C372.106,346.938,351.359,326.191,325.767,326.191z"/>
	</g>
</g>















</svg>
